<svg xmlns="http://www.w3.org/2000/svg" width="24" height="25" viewBox="0 0 24 25" fill="none"><path d="M4.23419 9.91528H19.7823" stroke="#0C0C0C" stroke-width="1.5" stroke-linecap="round" stroke-linejoin="round"></path><path d="M15.498 3.25V6.21205" stroke="#0C0C0C" stroke-width="1.5" stroke-linecap="round" stroke-linejoin="round"></path><path d="M8.51562 3.25V6.21205" stroke="#0C0C0C" stroke-width="1.5" stroke-linecap="round" stroke-linejoin="round"></path><path d="M19.7783 11.8746V8.8493C19.7858 6.14219 18.209 4.66992 15.6633 4.66992H8.34704C5.80894 4.66992 4.22461 6.14219 4.22461 8.8493V16.9949C4.22461 19.7439 5.80894 21.2502 8.34704 21.2502H10.4769" stroke="#0C0C0C" stroke-width="1.5" stroke-linecap="round" stroke-linejoin="round"></path><path fill-rule="evenodd" clip-rule="evenodd" d="M18.2512 19.6557C17.1517 20.801 15.3684 20.801 14.268 19.6557C13.1685 18.5103 13.1685 16.6527 14.268 15.5064C15.3684 14.3611 17.1517 14.3611 18.2512 15.5064C19.3507 16.6527 19.3507 18.5103 18.2512 19.6557Z" stroke="#0C0C0C" stroke-width="1.5" stroke-linecap="round" stroke-linejoin="round"></path><path d="M19.7765 21.2433L18.25 19.6533" stroke="#0C0C0C" stroke-width="1.5" stroke-linecap="round" stroke-linejoin="round"></path><path d="M8.12695 13.5391H8.13695" stroke="#0C0C0C" stroke-width="1.5" stroke-linecap="round" stroke-linejoin="round"></path><path d="M8.12695 17.0156H8.13695" stroke="#0C0C0C" stroke-width="1.5" stroke-linecap="round" stroke-linejoin="round"></path><path d="M11.6484 13.5391H11.6584" stroke="#0C0C0C" stroke-width="1.5" stroke-linecap="round" stroke-linejoin="round"></path></svg>