<svg xmlns="http://www.w3.org/2000/svg" width="25" height="25" viewBox="0 0 25 25" fill="none"><path fill-rule="evenodd" clip-rule="evenodd" d="M12.9178 4.45198L14.2585 7.02399C14.3913 7.27745 14.6458 7.45207 14.9384 7.4915L17.9381 7.9062C18.4243 7.96747 18.7661 8.39626 18.7023 8.86306C18.6759 9.05387 18.5827 9.23129 18.4383 9.36507L16.2688 11.3661C16.0554 11.5611 15.9578 11.8448 16.0092 12.1237L16.5226 14.9484C16.6018 15.4201 16.2673 15.8638 15.776 15.9398C15.5823 15.9694 15.3843 15.9377 15.2112 15.8496L12.5313 14.5161C12.2673 14.3852 11.9541 14.3852 11.6901 14.5161L9.00872 15.8503C8.5694 16.0742 8.02448 15.9137 7.79126 15.4919C7.69958 15.3251 7.66657 15.135 7.6981 14.9492L8.2115 12.1237C8.26211 11.8456 8.16456 11.5618 7.95187 11.3667L5.78022 9.36577C5.42745 9.03908 5.41645 8.49976 5.75676 8.16039C5.89611 8.02168 6.08092 7.93227 6.28041 7.9069L9.28009 7.4922C9.57273 7.45277 9.82722 7.27816 9.9607 7.0247L11.3036 4.45198C11.5346 4.02391 12.0832 3.85704 12.5291 4.07882C12.6956 4.1612 12.8313 4.29146 12.9178 4.45198Z" stroke="white" stroke-width="1.5" stroke-linecap="round" stroke-linejoin="round"></path><path d="M12.9507 15.0193L15.5019 21.0805C15.6348 21.3961 15.3928 21.7403 15.0384 21.7403H9.17884C8.82438 21.7403 8.58247 21.3961 8.71524 21.0806L11.266 15.0193" stroke="white" stroke-width="1.5" stroke-linecap="round" stroke-linejoin="round"></path></svg>