<svg xmlns="http://www.w3.org/2000/svg" viewBox="0 0 19 18" width="19" height="18"><title>image</title><style>		.s0 { fill: #262626 } 	</style><path class="s0" d="m4.6 12.7q-0.1 0.1-0.1 0.3-0.1 0.1-0.1 0.2 0 0.2 0 0.3 0.1 0.2 0.2 0.3 0.1 0.1 0.3 0.2 0.1 0 0.3 0 0.1 0 0.2-0.1 0.2 0 0.3-0.1zm9-8h0.8q0-0.3-0.3-0.5-0.2-0.2-0.5-0.2zm-6.4-0.8q-0.3 0-0.5 0.2-0.2 0.3-0.2 0.6 0 0.3 0.2 0.5 0.2 0.2 0.5 0.2zm5.7 7.1q0 0.3 0.2 0.6 0.2 0.2 0.5 0.2 0.3 0 0.5-0.2 0.3-0.3 0.3-0.6zm-7.2 2.7l8.4-8.5-1-1.1-8.5 8.5 1.1 1.1zm7.9-9.8h-6.4v1.5h6.4zm-0.7 0.8v6.3h1.5v-6.3z"></path></svg>