<svg xmlns="http://www.w3.org/2000/svg" width="24" height="25" viewBox="0 0 24 25" fill="none"><path fill-rule="evenodd" clip-rule="evenodd" d="M18.334 4.49959C18.333 3.97709 18.0149 3.64628 17.5945 3.77958C17.3299 3.86325 14.2144 5.95128 14.5783 13.4442C14.6376 14.2217 14.9753 14.7461 15.5542 15.146C16.1224 15.5381 16.2722 16.0324 16.2168 16.6921C16.0864 18.2508 15.9969 18.8657 15.9093 20.4283C15.8655 21.2164 16.4464 21.7895 17.2073 21.7477C17.865 21.7117 18.333 21.1746 18.334 20.4264C18.3379 17.5736 18.3379 6.19647 18.334 4.49959Z" stroke="white" stroke-width="1.5" stroke-linecap="round" stroke-linejoin="round"></path><path d="M11.683 4.125C11.7482 5.58545 11.8192 7.04493 11.8776 8.50538C11.9156 9.45112 11.5916 10.2645 10.8832 10.8921C9.91412 11.7493 9.67574 12.805 9.8071 14.0572C10.0484 16.3671 10.2255 17.737 10.3899 20.0537C10.4561 20.9839 9.62028 21.7506 8.77281 21.7506C7.92437 21.7506 7.08857 20.9839 7.15474 20.0537C7.32015 17.737 7.49626 16.3671 7.73756 14.0572C7.86891 12.805 7.63053 11.7493 6.66143 10.8921C5.9531 10.2645 5.6291 9.45112 5.66704 8.50538C5.72542 7.04493 5.79645 5.58545 5.86164 4.125" stroke="white" stroke-width="1.5" stroke-linecap="round" stroke-linejoin="round"></path><path d="M8.76758 7.66598L8.77731 4.20117" stroke="white" stroke-width="1.5" stroke-linecap="round" stroke-linejoin="round"></path></svg>