<svg xmlns="http://www.w3.org/2000/svg" width="24" height="25" viewBox="0 0 24 25" fill="none"><path d="M14.8877 3.5V6.34877" stroke="white" stroke-width="1.5" stroke-linecap="round" stroke-linejoin="round"></path><path d="M8.1748 3.5V6.34877" stroke="white" stroke-width="1.5" stroke-linecap="round" stroke-linejoin="round"></path><path d="M19.0044 11.3791V8.88543C19.0119 6.28184 17.495 4.86621 15.0478 4.86621H8.01184C5.57124 4.86621 4.04785 6.28184 4.04785 8.88543V16.7176C4.04785 19.3621 5.57124 20.8108 8.01184 20.8108H9.78644" stroke="white" stroke-width="1.5" stroke-linecap="round" stroke-linejoin="round"></path><path fill-rule="evenodd" clip-rule="evenodd" d="M19.9603 17.5958C19.9603 19.7519 18.2819 21.5002 16.2121 21.5002C14.1423 21.5002 12.4639 19.7519 12.4639 17.5958C12.4639 15.4398 14.1423 13.6914 16.2121 13.6914C18.2819 13.6914 19.9603 15.4398 19.9603 17.5958Z" stroke="white" stroke-width="1.5" stroke-linecap="round" stroke-linejoin="round"></path><path d="M17.3757 18.6095L16.1904 17.872V16.2852" stroke="white" stroke-width="1.5" stroke-linecap="round" stroke-linejoin="round"></path><path d="M15.4494 10.1357H7.60547" stroke="white" stroke-width="1.5" stroke-linecap="round" stroke-linejoin="round"></path></svg>