<svg xmlns="http://www.w3.org/2000/svg" width="25" height="25" viewBox="0 0 25 25" fill="none"><path d="M4.71857 10.4143H20.1184" stroke="white" stroke-width="1.5" stroke-linecap="round" stroke-linejoin="round"></path><path d="M15.908 3.75V6.71174" stroke="white" stroke-width="1.5" stroke-linecap="round" stroke-linejoin="round"></path><path d="M8.9295 3.75V6.71174" stroke="white" stroke-width="1.5" stroke-linecap="round" stroke-linejoin="round"></path><path fill-rule="evenodd" clip-rule="evenodd" d="M16.076 5.17188H8.76048C6.22264 5.17188 4.63849 6.64399 4.63849 9.34984V17.4956C4.63849 20.2443 6.22264 21.7504 8.76048 21.7504H16.0685C18.6139 21.7504 20.1906 20.2705 20.1906 17.5637V9.34984C20.198 6.64399 18.6214 5.17188 16.076 5.17188Z" stroke="white" stroke-width="1.5" stroke-linecap="round" stroke-linejoin="round"></path><path fill-rule="evenodd" clip-rule="evenodd" d="M9.74897 15.7807C9.43605 14.761 9.80221 13.5953 10.8288 13.2509C11.3695 13.0709 11.9608 13.174 12.4148 13.5292C12.8696 13.1779 13.4581 13.0738 13.998 13.2509C15.0255 13.5953 15.3944 14.761 15.0806 15.7807C14.593 17.3958 12.4148 18.6402 12.4148 18.6402C12.4148 18.6402 10.2533 17.4143 9.74897 15.7807Z" stroke="white" stroke-width="1.5" stroke-linecap="round" stroke-linejoin="round"></path></svg>