<svg xmlns="http://www.w3.org/2000/svg" width="41" height="40" viewBox="0 0 41 40" fill="none"><path d="M27.4965 35H13.4387C8.52518 35 5.4668 31.5313 5.4668 26.6227V13.3773C5.4668 8.46865 8.52518 5 13.4403 5H27.4965C32.41 5 35.4668 8.46865 35.4668 13.3773V26.6227C35.4668 31.5313 32.3955 35 27.4965 35Z" stroke="white" stroke-width="2" stroke-linecap="round" stroke-linejoin="round"></path><path d="M11.04 26.561H29.893M12.3674 26.5617L12.3236 25.6942C12.0917 21.0385 15.8036 17.1352 20.4658 17.1352C25.128 17.1352 28.8415 21.0385 28.6095 25.6942L28.5658 26.5617M22.0723 17.1348V15.0429C22.0723 14.1559 21.354 13.4375 20.467 13.4375C19.5815 13.4375 18.8615 14.1559 18.8615 15.0429V17.1348" stroke="white" stroke-width="2" stroke-linecap="round" stroke-linejoin="round"></path></svg>