<svg xmlns="http://www.w3.org/2000/svg" width="25" height="25" viewBox="0 0 25 25" fill="none"><path d="M17.0265 2.99976L16.2455 3.78076C15.8395 4.18676 15.6115 4.73676 15.6115 5.31176V7.10976" stroke="#0C0C0C" stroke-width="1.5" stroke-linecap="round" stroke-linejoin="round"></path><path d="M11.3243 11.8511L10.8963 8.47011C10.7973 7.75111 11.3563 7.11011 12.0823 7.11011H20.0063C20.7323 7.11011 21.2923 7.75211 21.1923 8.47211L19.5293 20.4671C19.4473 21.0591 18.9413 21.5001 18.3433 21.5001H12.8393" stroke="#0C0C0C" stroke-width="1.5" stroke-linecap="round" stroke-linejoin="round"></path><path fill-rule="evenodd" clip-rule="evenodd" d="M12.8385 21.5003H6.2064C4.9124 21.5003 3.8634 20.4513 3.8634 19.1573V17.0193C3.8634 14.1643 6.1774 11.8513 9.0314 11.8513H10.0134C12.8685 11.8513 15.1815 14.1643 15.1815 17.0193V19.1573C15.1815 20.4513 14.1325 21.5003 12.8385 21.5003Z" stroke="#0C0C0C" stroke-width="1.5" stroke-linecap="round" stroke-linejoin="round"></path><path d="M9.18176 17.4792H15.1598" stroke="#0C0C0C" stroke-width="1.5" stroke-linecap="round" stroke-linejoin="round"></path><path d="M3.8634 17.4792H5.9924" stroke="#0C0C0C" stroke-width="1.5" stroke-linecap="round" stroke-linejoin="round"></path><path d="M11.256 10.6042H20.886" stroke="#0C0C0C" stroke-width="1.5" stroke-linecap="round" stroke-linejoin="round"></path></svg>