<svg xmlns="http://www.w3.org/2000/svg" width="24" height="25" viewBox="0 0 24 25" fill="none"><path fill-rule="evenodd" clip-rule="evenodd" d="M19.1761 21.7032H4.82387C4.0202 21.7032 3.30604 21.1885 3.0521 20.4267C2.8361 19.7777 3.31869 19.1074 4.00269 19.1074H19.9973C20.6813 19.1074 21.1639 19.7777 20.9479 20.4267C20.694 21.1885 19.9798 21.7032 19.1761 21.7032Z" stroke="white" stroke-width="1.5" stroke-linecap="round" stroke-linejoin="round"></path><path d="M13.3223 10.2155V9.08496C13.3223 8.35426 12.7297 7.76172 12 7.76172C11.2693 7.76172 10.6777 8.35426 10.6777 9.08496V10.2155" stroke="white" stroke-width="1.5" stroke-linecap="round" stroke-linejoin="round"></path><path d="M4.26371 19.1081L4.22284 18.2791C4.00003 13.8307 7.5465 10.1033 12.0008 10.1033C16.454 10.1033 20.0005 13.8307 19.7787 18.2791L19.7368 19.1081" stroke="white" stroke-width="1.5" stroke-linecap="round" stroke-linejoin="round"></path><path d="M18.0241 6.10547C17.5571 6.57251 17.5571 7.32952 18.0241 7.7956" stroke="white" stroke-width="1.5" stroke-linecap="round" stroke-linejoin="round"></path><path d="M3.67383 7.79688C4.14088 8.26392 4.14088 9.02094 3.67383 9.48701" stroke="white" stroke-width="1.5" stroke-linecap="round" stroke-linejoin="round"></path><path d="M8.13544 3.79688C8.60249 4.26392 8.60249 5.02093 8.13544 5.487C7.66839 5.95405 7.66839 6.71106 8.13544 7.17713" stroke="white" stroke-width="1.5" stroke-linecap="round" stroke-linejoin="round"></path></svg>