<svg xmlns="http://www.w3.org/2000/svg" width="41" height="40" viewBox="0 0 41 40" fill="none"><path d="M27.2962 32.8128C27.2962 29.7653 25.2439 26.1052 19.5938 25.1013" stroke="white" stroke-width="2" stroke-linecap="round" stroke-linejoin="round"></path><path fill-rule="evenodd" clip-rule="evenodd" d="M23.3514 12.7517C23.3514 16.6062 20.2271 19.7305 16.3727 19.7305C12.5198 19.7305 9.39551 16.6062 9.39551 12.7517C9.39551 8.89723 12.5198 5.77295 16.3727 5.77295C20.2271 5.77295 23.3514 8.89723 23.3514 12.7517Z" stroke="white" stroke-width="2" stroke-linecap="round" stroke-linejoin="round"></path><path d="M29.3564 24.2874C33.9363 25.2275 35.3336 28.5425 35.3336 31.0869" stroke="white" stroke-width="2" stroke-linecap="round" stroke-linejoin="round"></path><path d="M27.8076 8.59436C30.163 9.08546 31.9271 11.1759 31.919 13.675C31.911 15.8865 30.5168 17.7702 28.5588 18.502" stroke="white" stroke-width="2" stroke-linecap="round" stroke-linejoin="round"></path><path d="M9.4764 32.2449L9.31518 31.8087C8.70737 30.1635 7.41227 28.8665 5.76955 28.2579L5.33398 28.0964L5.76955 27.935C7.41227 27.3262 8.70737 26.0292 9.31518 24.3842L9.4764 23.9479L9.63762 24.3842C10.2454 26.0292 11.5405 27.3262 13.1833 27.935L13.6189 28.0964L13.1833 28.2579C11.5405 28.8665 10.2454 30.1635 9.63762 31.8087L9.4764 32.2449Z" stroke="white" stroke-width="2" stroke-linecap="round" stroke-linejoin="round"></path><path d="M17.9521 34.2272C17.6781 33.326 16.974 32.6207 16.0742 32.3464C16.974 32.0722 17.6781 31.3669 17.9521 30.4657C18.2259 31.3669 18.9301 32.0722 19.8299 32.3464C18.9301 32.6207 18.2259 33.326 17.9521 34.2272Z" stroke="white" stroke-width="2" stroke-linecap="round" stroke-linejoin="round"></path></svg>