<svg xmlns="http://www.w3.org/2000/svg" width="25" height="25" viewBox="0 0 25 25" fill="none"><path d="M3.59373 20.7496C3.59373 18.641 5.19082 16.0156 9.79416 16.0156C14.3966 16.0156 15.9937 18.6219 15.9937 20.7315" stroke="#0C0C0C" stroke-width="1.5" stroke-linecap="round" stroke-linejoin="round"></path><path fill-rule="evenodd" clip-rule="evenodd" d="M13.7542 8.87567C13.7542 11.1543 11.9811 13.0013 9.79353 13.0013C7.60692 13.0013 5.8338 11.1543 5.8338 8.87567C5.8338 6.597 7.60692 4.75 9.79353 4.75C11.9811 4.75 13.7542 6.597 13.7542 8.87567Z" stroke="#0C0C0C" stroke-width="1.5" stroke-linecap="round" stroke-linejoin="round"></path><path d="M17.1639 15.6953C19.763 16.2511 20.556 18.2108 20.556 19.715" stroke="#0C0C0C" stroke-width="1.5" stroke-linecap="round" stroke-linejoin="round"></path><path d="M16.283 6.41406C17.6197 6.70439 18.6208 7.94018 18.6163 9.41759C18.6117 10.725 17.8205 11.8386 16.7093 12.2712" stroke="#0C0C0C" stroke-width="1.5" stroke-linecap="round" stroke-linejoin="round"></path></svg>