<svg xmlns="http://www.w3.org/2000/svg" width="33" height="33" viewBox="0 0 33 33" fill="none"><path d="M14.648 23.2077H16.5811C17.9613 23.2077 19.0757 22.2153 19.0757 20.8349C19.0757 19.6881 18.3 18.7709 17.1881 18.492C15.5951 18.0924 14.0072 17.7785 12.3453 17.8186C9.71304 17.8836 7.87086 19.3508 5.78479 20.748" stroke="white" stroke-width="1.5" stroke-linecap="round" stroke-linejoin="round"></path><path d="M14.6487 23.2533C15.6255 23.1106 16.6206 23.2546 17.6091 23.2313C19.8988 23.1768 21.6931 21.2412 23.4354 19.9284C24.3266 19.2576 25.5734 19.3472 26.3608 20.1372C27.2339 21.0154 27.2339 22.4373 26.3608 23.3156C24.4784 25.2045 22.8152 26.9585 20.2634 27.9496C16.7231 29.3273 13.4383 28.6592 9.8525 27.9496C8.46568 27.6758 7.18782 27.659 5.78284 27.659" stroke="white" stroke-width="1.5" stroke-linecap="round" stroke-linejoin="round"></path><path d="M21.0074 7.78344C20.8881 7.06213 20.5598 6.36807 20.0019 5.81152C18.5866 4.39616 16.293 4.39616 14.8775 5.81152C13.4622 7.22689 13.4622 9.52184 14.8775 10.9372C15.7585 11.8181 16.9793 12.1489 18.1183 11.9335" stroke="white" stroke-width="1.5" stroke-linecap="round" stroke-linejoin="round"></path><path fill-rule="evenodd" clip-rule="evenodd" d="M25.3122 11.3434C25.3122 13.3452 23.6892 14.9668 21.6875 14.9668C19.687 14.9668 18.064 13.3452 18.064 11.3434C18.064 9.34168 19.687 7.71875 21.6875 7.71875C23.6892 7.71875 25.3122 9.34168 25.3122 11.3434Z" stroke="white" stroke-width="1.5" stroke-linecap="round" stroke-linejoin="round"></path></svg>