<svg xmlns="http://www.w3.org/2000/svg" width="25" height="25" viewBox="0 0 25 25" fill="none"><path d="M21.4004 11.7298C21.4004 16.4991 17.3684 20.3698 12.4004 20.3698C7.43239 20.3698 3.40039 16.4991 3.40039 11.7298C3.40039 6.96056 7.43239 3.08984 12.4004 3.08984" stroke="#0C0C0C" stroke-width="1.5" stroke-linecap="round" stroke-linejoin="round"></path><path d="M19.0066 5.38892L21.3719 5.38985M19.0066 5.38892L16.6406 5.38801M19.0066 5.38892V7.65916M19.0066 5.38892L19.0061 3.11719" stroke="#0C0C0C" stroke-width="1.5" stroke-linecap="round" stroke-linejoin="round"></path><path d="M14.2137 8.98242H11.6022C10.8248 8.98242 10.1953 9.58675 10.1953 10.3322C10.1953 11.0785 10.8248 11.6828 11.6022 11.6828H13.2096C13.986 11.6828 14.6155 12.2871 14.6155 13.0325C14.6155 13.7788 13.986 14.3831 13.2096 14.3831H10.5972" stroke="#0C0C0C" stroke-width="1.5" stroke-linecap="round" stroke-linejoin="round"></path><path d="M12.4043 14.3817V15.5157M12.4043 7.84155V8.98484" stroke="#0C0C0C" stroke-width="1.5" stroke-linecap="round" stroke-linejoin="round"></path></svg>