<svg xmlns="http://www.w3.org/2000/svg" width="24" height="25" viewBox="0 0 24 25" fill="none"><path d="M21 12.3299C21 17.0992 16.968 20.9699 12 20.9699C7.032 20.9699 3 17.0992 3 12.3299C3 7.56066 7.032 3.68994 12 3.68994" stroke="white" stroke-width="1.5" stroke-linecap="round" stroke-linejoin="round"></path><path d="M13.8133 9.58301H11.2018C10.4244 9.58301 9.79492 10.1873 9.79492 10.9327C9.79492 11.679 10.4244 12.2833 11.2018 12.2833H12.8092C13.5856 12.2833 14.2151 12.8877 14.2151 13.6331C14.2151 14.3794 13.5856 14.9837 12.8092 14.9837H10.1968" stroke="white" stroke-width="1.5" stroke-linecap="round" stroke-linejoin="round"></path><path d="M12.0059 14.9813V16.1153M12.0059 8.44116V9.58445" stroke="white" stroke-width="1.5" stroke-linecap="round" stroke-linejoin="round"></path><path d="M16.6523 5.08496V7.86285H19.546" stroke="white" stroke-width="1.5" stroke-linecap="round" stroke-linejoin="round"></path><path d="M16.6523 7.8631L20.5579 4.11377" stroke="white" stroke-width="1.5" stroke-linecap="round" stroke-linejoin="round"></path></svg>