<svg xmlns="http://www.w3.org/2000/svg" width="24" height="25" viewBox="0 0 24 25" fill="none"><path fill-rule="evenodd" clip-rule="evenodd" d="M9.69629 6.26772C9.69629 4.98441 10.7276 3.94336 11.9992 3.94336C13.2709 3.94336 14.3022 4.98441 14.3022 6.26772C14.3022 7.552 13.2709 8.59305 11.9992 8.59305C10.7276 8.59305 9.69629 7.552 9.69629 6.26772Z" stroke="white" stroke-width="1.5" stroke-linecap="round" stroke-linejoin="round"></path><path fill-rule="evenodd" clip-rule="evenodd" d="M16.3945 17.8661C16.3945 16.5827 17.4258 15.5417 18.6974 15.5417C19.9691 15.5417 21.0004 16.5827 21.0004 17.8661C21.0004 19.1503 19.9691 20.1914 18.6974 20.1914C17.4258 20.1914 16.3945 19.1503 16.3945 17.8661Z" stroke="white" stroke-width="1.5" stroke-linecap="round" stroke-linejoin="round"></path><path fill-rule="evenodd" clip-rule="evenodd" d="M3 17.8661C3 16.5827 4.03132 15.5417 5.30295 15.5417C6.57459 15.5417 7.6059 16.5827 7.6059 17.8661C7.6059 19.1503 6.57459 20.1914 5.30295 20.1914C4.03132 20.1914 3 19.1503 3 17.8661Z" stroke="white" stroke-width="1.5" stroke-linecap="round" stroke-linejoin="round"></path><path d="M4.50596 15.6887C4.35126 15.065 4.26953 14.4239 4.26953 13.7545C4.26953 10.2529 6.55789 7.29124 9.70049 6.30078" stroke="white" stroke-width="1.5" stroke-linecap="round" stroke-linejoin="round"></path><path d="M6.85547 19.5842C8.21759 20.8131 10.0178 21.5571 11.9977 21.5571C13.9776 21.5571 15.7844 20.8059 17.1465 19.5684" stroke="white" stroke-width="1.5" stroke-linecap="round" stroke-linejoin="round"></path><path d="M14.3047 6.30078C17.4463 7.29999 19.7259 10.2529 19.7259 13.7545C19.7259 14.4141 19.6442 15.065 19.4895 15.6799" stroke="white" stroke-width="1.5" stroke-linecap="round" stroke-linejoin="round"></path></svg>