<svg xmlns="http://www.w3.org/2000/svg" width="24" height="25" viewBox="0 0 24 25" fill="none"><path fill-rule="evenodd" clip-rule="evenodd" d="M11.9728 20.5186C8.7338 20.5186 5.9668 20.0286 5.9668 18.0666C5.9668 16.1046 8.7158 14.3966 11.9728 14.3966C15.2118 14.3966 17.9788 16.0886 17.9788 18.0496C17.9788 20.0106 15.2298 20.5186 11.9728 20.5186Z" stroke="#0C0C0C" stroke-width="1.5" stroke-linecap="round" stroke-linejoin="round"></path><path fill-rule="evenodd" clip-rule="evenodd" d="M11.9721 11.5992C14.0981 11.5992 15.8221 9.87615 15.8221 7.75015C15.8221 5.62415 14.0981 3.90015 11.9721 3.90015C9.84609 3.90015 8.12209 5.62415 8.12209 7.75015C8.11609 9.86815 9.82609 11.5922 11.9451 11.5992H11.9721Z" stroke="#0C0C0C" stroke-width="1.5" stroke-linecap="round" stroke-linejoin="round"></path><path d="M18.3623 10.5421C19.5993 10.2111 20.5113 9.08305 20.5113 7.74005C20.5113 6.33905 19.5183 5.16905 18.1963 4.89905" stroke="#0C0C0C" stroke-width="1.5" stroke-linecap="round" stroke-linejoin="round"></path><path d="M18.9434 13.6948C20.6974 13.6948 22.1954 14.8838 22.1954 15.9458C22.1954 16.5708 21.6784 17.2518 20.8944 17.4358" stroke="#0C0C0C" stroke-width="1.5" stroke-linecap="round" stroke-linejoin="round"></path><path d="M5.58359 10.5421C4.34559 10.2111 3.43359 9.08305 3.43359 7.74005C3.43359 6.33905 4.42759 5.16905 5.74859 4.89905" stroke="#0C0C0C" stroke-width="1.5" stroke-linecap="round" stroke-linejoin="round"></path><path d="M5.002 13.6948C3.248 13.6948 1.75 14.8838 1.75 15.9458C1.75 16.5708 2.267 17.2518 3.052 17.4358" stroke="#0C0C0C" stroke-width="1.5" stroke-linecap="round" stroke-linejoin="round"></path></svg>