<svg xmlns="http://www.w3.org/2000/svg" width="25" height="25" viewBox="0 0 25 25" fill="none"><path d="M20.1949 4.02734L20.3878 7.43434L17.1344 7.63334" stroke="#0C0C0C" stroke-width="1.5" stroke-linecap="round" stroke-linejoin="round"></path><path d="M21.8597 12.7547C21.8559 15.6087 20.5426 18.4167 18.109 20.1607C14.1826 22.9747 8.80659 21.9457 6.09939 17.8477C3.39891 13.7567 4.39347 8.15075 8.32083 5.33775C12.1906 2.56475 17.4591 3.52075 20.2095 7.45075" stroke="#0C0C0C" stroke-width="1.5" stroke-linecap="round" stroke-linejoin="round"></path><path fill-rule="evenodd" clip-rule="evenodd" d="M15.9339 13.9343C15.1371 14.6923 14.1416 15.3743 13.0462 15.8393C12.1141 16.2253 11.3326 15.7433 11.2184 14.7773C11.0792 13.3533 11.0821 11.9903 11.2184 10.7183C11.3432 9.71433 12.2034 9.28833 13.0462 9.66033C14.1243 10.1253 15.093 10.7553 15.9339 11.5653C16.653 12.2503 16.6693 13.2233 15.9339 13.9343Z" stroke="#0C0C0C" stroke-width="1.5" stroke-linecap="round" stroke-linejoin="round"></path></svg>