<svg xmlns="http://www.w3.org/2000/svg" width="33" height="33" viewBox="0 0 33 33" fill="none"><path d="M6.04651 13.637H26.7773" stroke="white" stroke-width="1.5" stroke-linecap="round" stroke-linejoin="round"></path><path d="M21.0621 4.75V8.6994" stroke="white" stroke-width="1.5" stroke-linecap="round" stroke-linejoin="round"></path><path d="M11.7553 4.75V8.6994" stroke="white" stroke-width="1.5" stroke-linecap="round" stroke-linejoin="round"></path><path d="M26.771 16.2496V12.2158C26.781 8.60634 24.6786 6.64331 21.2845 6.64331H11.5294C8.14527 6.64331 6.03284 8.60634 6.03284 12.2158V23.0766C6.03284 26.742 8.14527 28.7504 11.5294 28.7504H14.3693" stroke="white" stroke-width="1.5" stroke-linecap="round" stroke-linejoin="round"></path><path fill-rule="evenodd" clip-rule="evenodd" d="M23.4757 19.231L24.4965 21.3583C24.5978 21.5676 24.7923 21.7122 25.0149 21.7459L27.3018 22.0876C27.6722 22.139 27.9335 22.4942 27.8842 22.8791C27.8641 23.0371 27.7936 23.1843 27.6828 23.2951L26.0291 24.9498C25.8678 25.1118 25.7919 25.3454 25.8305 25.5763L26.2222 27.913C26.2823 28.302 26.0277 28.6694 25.6533 28.7328C25.5053 28.7572 25.3548 28.7316 25.2228 28.6586L23.1812 27.5551C22.9799 27.4471 22.74 27.4471 22.5388 27.5551L20.4958 28.6586C20.1613 28.8436 19.7441 28.7114 19.567 28.3627C19.4976 28.225 19.4723 28.0671 19.4963 27.913L19.8867 25.5763C19.9268 25.3467 19.8522 25.1118 19.6896 24.9498L18.0345 23.2951C17.7665 23.025 17.7572 22.5792 18.0158 22.2983C18.1224 22.1835 18.2636 22.1092 18.4155 22.089L20.7024 21.7459C20.9262 21.7134 21.1195 21.569 21.2208 21.3596L22.2442 19.231C22.4215 18.8771 22.8387 18.7394 23.1785 18.9216C23.3051 18.9904 23.409 19.0986 23.4757 19.231Z" stroke="white" stroke-width="1.5" stroke-linecap="round" stroke-linejoin="round"></path></svg>