<svg xmlns="http://www.w3.org/2000/svg" width="33" height="33" viewBox="0 0 33 33" fill="none"><path d="M12.4925 10.875H20.3063C23.0372 10.875 24.7367 12.8028 24.7367 15.5311V19.8772C24.7367 22.6055 23.0372 24.5333 20.305 24.5333H12.4925C9.76164 24.5333 8.06213 22.6055 8.06213 19.8772V15.5311C8.06213 12.8028 9.76941 10.875 12.4925 10.875Z" stroke="white" stroke-width="1.5" stroke-linecap="round" stroke-linejoin="round"></path><path fill-rule="evenodd" clip-rule="evenodd" d="M18.0759 6.42615C18.0759 5.49985 17.3247 4.75 16.3998 4.75C15.4735 4.75 14.7223 5.49985 14.7223 6.42615C14.7223 7.35244 15.4734 8.10228 16.3996 8.10228C17.3247 8.10228 18.0759 7.35244 18.0759 6.42615Z" stroke="white" stroke-width="1.5" stroke-linecap="round" stroke-linejoin="round"></path><path d="M16.4 10.8753V8.10425" stroke="white" stroke-width="1.5" stroke-linecap="round" stroke-linejoin="round"></path><path d="M13.402 15.6227V15.6094" stroke="white" stroke-width="1.5" stroke-linecap="round" stroke-linejoin="round"></path><path d="M19.3962 15.6227V15.6094" stroke="white" stroke-width="1.5" stroke-linecap="round" stroke-linejoin="round"></path><path d="M14.5621 19.9531H18.2361" stroke="white" stroke-width="1.5" stroke-linecap="round" stroke-linejoin="round"></path><path d="M11.1266 28.7522C12.3798 28.0256 14.283 27.5574 16.4028 27.5574C18.5227 27.5574 20.4142 28.0256 21.6674 28.7522" stroke="white" stroke-width="1.5" stroke-linecap="round" stroke-linejoin="round"></path><path d="M27.7955 15.75V19.4513M5.00354 15.75V19.4513" stroke="white" stroke-width="1.5" stroke-linecap="round" stroke-linejoin="round"></path></svg>