<svg xmlns="http://www.w3.org/2000/svg" width="44" height="44" viewBox="0 0 44 44" fill="none"><g clip-path="url(#clip0_1_728)"><g clip-path="url(#clip1_1_728)"><g clip-path="url(#clip2_1_728)"><path d="M12.5343 23.5136C13.7452 21.4963 17.9549 19.0007 21.3783 21.4647M36.1173 18.1121C34.0158 16.6754 29.8827 17.2225 28.3217 20.2471M16.1939 30.5727C20.0573 40.2661 36.9983 35.6165 35.6888 25.3578C35.6888 25.3578 31.9842 27.1752 26.6975 28.5899C21.4127 30.0036 16.1939 30.5727 16.1939 30.5727ZM42.9019 20.9673C43.9981 33.6766 33.9087 42.6976 22.5012 42.8506C11.0937 43.0037 3.32009 36.3281 1.61557 24.5925C-0.0889559 12.856 9.60252 2.3142 20.3768 1.3682C31.152 0.421242 41.8057 8.25898 42.9019 20.9673Z" stroke="#F6E85C" stroke-width="1.5113"></path></g></g></g><defs><clipPath id="clip0_1_728"><rect width="44" height="44" fill="white" transform="translate(0 0.000488281)"></rect></clipPath><clipPath id="clip1_1_728"><rect width="44" height="44" fill="white" transform="translate(0 0.000488281)"></rect></clipPath><clipPath id="clip2_1_728"><rect width="44" height="44" fill="white" transform="translate(0 0.000488281)"></rect></clipPath></defs></svg>