<svg xmlns="http://www.w3.org/2000/svg" width="33" height="33" viewBox="0 0 33 33" fill="none"><path d="M18.4978 28.6268C17.8167 28.7426 17.1148 28.8024 16.4 28.8024C9.77216 28.8024 4.40002 23.6452 4.40002 17.2824C4.40002 10.921 9.77216 5.76245 16.4 5.76245C23.0266 5.76245 28.4 10.921 28.4 17.2824C28.4 18.3485 28.2495 19.3797 27.9667 20.3586" stroke="white" stroke-width="1.5" stroke-linecap="round" stroke-linejoin="round"></path><path d="M24.3395 23.1401V27.8057" stroke="white" stroke-width="1.5" stroke-linecap="round" stroke-linejoin="round"></path><path d="M26.7719 25.4751H21.9079" stroke="white" stroke-width="1.5" stroke-linecap="round" stroke-linejoin="round"></path><path fill-rule="evenodd" clip-rule="evenodd" d="M16.9206 12.8451L17.9712 14.8611C18.0752 15.0595 18.2752 15.1964 18.5046 15.2271L20.8552 15.5523C21.2366 15.6009 21.5046 15.9363 21.4539 16.3023C21.4339 16.4521 21.3606 16.5903 21.2472 16.6953L19.5472 18.2646C19.3806 18.4169 19.3032 18.6396 19.3432 18.8572L19.7459 21.0716C19.8072 21.4415 19.5459 21.7897 19.1606 21.8486C19.0086 21.8729 18.8539 21.8473 18.7179 21.7782L16.6179 20.7337C16.4112 20.6313 16.1646 20.6313 15.9579 20.7337L13.8566 21.7795C13.5126 21.9548 13.0846 21.8294 12.9019 21.4979C12.8299 21.3673 12.8046 21.2188 12.8286 21.0729L13.2312 18.8585C13.2712 18.6396 13.1952 18.4182 13.0286 18.2646L11.3259 16.6966C11.0499 16.4406 11.0406 16.0182 11.3072 15.7519C11.4166 15.6431 11.5619 15.5727 11.7179 15.5523L14.0699 15.2284C14.2992 15.1964 14.4979 15.0595 14.6019 14.8611L15.6552 12.8451C15.8366 12.5097 16.2659 12.3779 16.6152 12.5519C16.7459 12.6172 16.8526 12.7196 16.9206 12.8451Z" stroke="white" stroke-width="1.5" stroke-linecap="round" stroke-linejoin="round"></path></svg>