<svg xmlns="http://www.w3.org/2000/svg" width="24" height="25" viewBox="0 0 24 25" fill="none"><path d="M14.3195 4.00195H7.7808C5.06999 4.00195 3.39062 5.92149 3.39062 8.63045V15.9027C3.39062 18.6126 5.03741 20.5237 7.7808 20.5237H15.5195C18.2284 20.5237 19.9097 18.6126 19.9097 15.9027V9.56974" stroke="#0C0C0C" stroke-width="1.5" stroke-linecap="round" stroke-linejoin="round"></path><path fill-rule="evenodd" clip-rule="evenodd" d="M18.88 3.24414C19.8351 3.24414 20.6097 4.01866 20.6097 4.97377C20.6097 5.9289 19.8351 6.70341 18.88 6.70341C17.9249 6.70341 17.1504 5.9289 17.1504 4.97377C17.1504 4.01866 17.9249 3.24414 18.88 3.24414Z" stroke="#0C0C0C" stroke-width="1.5" stroke-linecap="round" stroke-linejoin="round"></path><path d="M15.8088 14.4947L13.1156 10.9954L10.0436 13.4074L7.4082 10.0059" stroke="#0C0C0C" stroke-width="1.5" stroke-linecap="round" stroke-linejoin="round"></path></svg>