<svg xmlns="http://www.w3.org/2000/svg"   width="24" height="25" viewBox="0 0 24 25">
  <path fill="#fff" d="M18.8,19.1c1.5-1.8,2.3-4,2.3-6.3,0-5.4-4.2-9.7-9.4-9.7s-4.4.8-6.1,2.3l-1.3-1.3c-.3-.3-.8-.3-1.1,0-.3.3-.3.8,0,1.1l15.8,16.5c.1.2.3.2.5.2s.4,0,.5-.2c.3-.3.3-.8,0-1.1l-1.3-1.4ZM13.1,13.1l-3.4-3.5c.4-.7,1.2-1.1,1.9-1.1,1.3,0,2.4,1.1,2.4,2.5s-.4,1.6-1,2ZM14.1,14.2c.9-.8,1.5-1.9,1.5-3.1,0-2.2-1.8-4-3.9-4s-2.3.6-3,1.5l-2-2.1c1.4-1.2,3.2-1.9,5-1.9,4.4,0,7.9,3.7,7.9,8.2s-.6,3.8-1.8,5.3l-3.6-3.8ZM15.1,20.2c-2.4,1.2-5.3,1-7.5-.4.3-.8,1.1-2.2,4.1-2.2s.8-.3.8-.8-.3-.8-.8-.8c-3,0-4.6,1.3-5.3,2.8-1.6-1.5-2.6-3.7-2.6-6.1s.3-2.5.8-3.6c0,0,0-.2,0-.3,0-.4-.3-.7-.8-.7s-.6.2-.7.5c-.6,1.3-.9,2.7-.9,4.2,0,3.2,1.5,6.2,4,8,1.6,1.2,3.4,1.8,5.4,1.8s2.8-.3,4.1-1c.4-.2.5-.6.3-1-.2-.4-.6-.5-1-.3Z"/>
</svg>