<svg xmlns="http://www.w3.org/2000/svg" width="24" height="25" viewBox="0 0 24 25" fill="none"><path d="M10.3922 10.3203L8.80003 14.6811L7.20801 10.3203" stroke="white" stroke-width="1.5" stroke-linecap="round" stroke-linejoin="round"></path><path d="M12.6709 10.3203V14.6811" stroke="white" stroke-width="1.5" stroke-linecap="round" stroke-linejoin="round"></path><path d="M15.2403 12.9678L15.2402 10.3203H16.7724C17.5034 10.3203 18.0961 10.913 18.0961 11.644C18.0961 12.3751 17.5035 12.9678 16.7724 12.9678H15.2403ZM15.2403 12.9678L15.2402 14.5869" stroke="white" stroke-width="1.5" stroke-linecap="round" stroke-linejoin="round"></path><path d="M4.961 12.4975C4.961 11.7559 4.549 11.1349 3.942 10.817C3.53 10.6008 3.32301 10.4927 3.26801 10.4483C3.07601 10.2936 3.062 10.2696 3.014 10.0278C3 9.95841 3 9.84201 3 9.60921C3 8.52451 3.00001 7.98212 3.12801 7.53942C3.43801 6.47412 4.271 5.64112 5.336 5.33172C5.779 5.20312 6.32101 5.20313 7.40601 5.20313H16.593C17.675 5.20313 18.217 5.20313 18.658 5.33113C19.726 5.64063 20.561 6.47611 20.87 7.54441C20.997 7.98632 20.997 8.52763 20.996 9.61023C20.9876 11.5553 21 13.4687 21 15.3975C21 16.477 21 17.0168 20.873 17.4575C20.564 18.5262 19.728 19.3618 18.659 19.6706C18.219 19.798 17.679 19.798 16.599 19.798H7.40601C6.32201 19.798 5.78001 19.798 5.33701 19.6695C4.27101 19.3601 3.43801 18.5267 3.12901 17.4608C3.00001 17.0183 3 16.4761 3.001 15.3918C3.001 15.1592 3.001 15.043 3.014 14.9738C3.062 14.7319 3.07601 14.7089 3.26801 14.5538C3.32301 14.5095 3.529 14.4006 3.942 14.183C4.55 13.8631 4.961 13.2387 4.961 12.4975Z" stroke="white" stroke-width="1.5" stroke-linecap="round" stroke-linejoin="round"></path><path d="M12.6709 7.47437V5.20312" stroke="white" stroke-width="1.5" stroke-linecap="round" stroke-linejoin="round"></path><path d="M12.6709 19.7986V17.5273" stroke="white" stroke-width="1.5" stroke-linecap="round" stroke-linejoin="round"></path></svg>